# xmcd
#
# Track frame offsets:
#  150
#  13261
#  25360
#  36440
#  49050
#  62861
#  75254
#  89290
#  100663
#  110448
#
# Disc length: 1638 seconds
#
# Revision: 1
# Processed by: cddbd v1.5.1PL2 Copyright (c) Steve Scherf et al.
# Submitted via: Collectorz.com_Music_Collector 6.9
#
DISCID=7806640a
DTITLE=Various Artist - The Best Of The 70s Disc 3
DYEAR=2004
DGENRE=Country
TTITLE0=Waylon Jennings - Are You Sure Hank Done It This Way
TTITLE1=Dolly Parton - Jolene
TTITLE2=Charlie Rich - She Called Me Baby
TTITLE3=Hank Snow - Hello Love
TTITLE4=Gary Stewart - Your Place Or Mine
TTITLE5=Dave and Sugar - The Door Is Always Open
TTITLE6=Dottsy - Storms Never Last
TTITLE7=Vernon Oxford - Redneck! (The Redneck National Anthem)
TTITLE8=Pure Prairie League - That'll Be The Day
TTITLE9=Jim Weatherly - I'll Still Love You
EXTD=
EXTT0=
EXTT1=
EXTT2=
EXTT3=
EXTT4=
EXTT5=
EXTT6=
EXTT7=
EXTT8=
EXTT9=
PLAYORDER=
